<svg xmlns="http://www.w3.org/2000/svg" viewBox="0 0 64 64">
  <rect width="64" height="64" rx="14" fill="#ffffff"/>
  <path d="M16 21c0-6.1 5.8-11 13-11s13 4.9 13 11-5.8 11-13 11c-1 0-2-.1-2.9-.3l-7.2 3 1.5-5.3C17.7 27.4 16 24.4 16 21Z" fill="#111111"/>
  <path d="M28 37c0-5.2 4.9-9.4 11-9.4s11 4.2 11 9.4-4.9 9.4-11 9.4c-.9 0-1.7-.1-2.5-.3l-6.2 2.5 1.2-4.5C29.4 42.4 28 39.8 28 37Z" fill="#19c15f"/>
  <circle cx="25" cy="20.5" r="2" fill="#ffffff"/>
  <circle cx="33" cy="20.5" r="2" fill="#ffffff"/>
  <circle cx="35.5" cy="36.7" r="1.7" fill="#ffffff"/>
  <circle cx="42.5" cy="36.7" r="1.7" fill="#ffffff"/>
</svg>
